# xmcd
#
# Track frame offsets: 
#        150
#        17687
#        38113
#        64631
#        81427
#        100567
#        117746
#        143670
#        168033
#        187481
#        211576
#        233830
#
# Disc length: 3387 seconds
#
# Revision: 0
# Processed by: cddbd v1.5.2PL0 Copyright (c) Steve Scherf et al.
# Submitted via: ExactAudioCopy v1.3
#
DISCID=9c0d390c
DTITLE=Instant Blues - Kawy łyk...
DYEAR=1900
DGENRE=Blues
TTITLE0=Ciągle pusto
TTITLE1=Sen
TTITLE2=Siedzę myślę
TTITLE3=Siła
TTITLE4=Po co mi to
TTITLE5=Wczoraj
TTITLE6=Blady świt
TTITLE7=Spojrzenie
TTITLE8=Helenka
TTITLE9=Kawy łyk
TTITLE10=Rock me baby
TTITLE11=Parasole
EXTD=
EXTT0=
EXTT1=
EXTT2=
EXTT3=
EXTT4=
EXTT5=
EXTT6=
EXTT7=
EXTT8=
EXTT9=
EXTT10=
EXTT11=
PLAYORDER=
